<svg id="Camada_1" data-name="Camada 1" xmlns="http://www.w3.org/2000/svg" viewBox="0 0 1164.61 606.58"><defs><style>.cls-1,.cls-3{fill:none;}.cls-1,.cls-2,.cls-3{stroke:#000;stroke-miterlimit:10;}.cls-1{stroke-width:3px;}.cls-3{stroke-width:2px;}</style></defs><title>MIPS simple single cycle</title><path d="M385,449.11V666H158.49V449.11H385m3-3H155.49V669H388V446.11Z" transform="translate(-151 -117.42)"/><path d="M236.64,642l3.15-11.17h4.11v16.57h-2.83V634.5l.11.73L238,645.51h-2.75l-3.17-10.06.11-1v12.86h-2.83V630.79h4.11Z" transform="translate(-151 -117.42)"/><path d="M252.39,647.53a5.48,5.48,0,0,1-4-1.38,5.22,5.22,0,0,1-1.42-3.92V640.9a5.72,5.72,0,0,1,1.36-4.09,5,5,0,0,1,3.85-1.45,4.27,4.27,0,0,1,3.63,1.73A8.05,8.05,0,0,1,257.1,642v.77H249v-2.11h5.24l0-.27a2.89,2.89,0,0,0-.64-1.58,1.81,1.81,0,0,0-1.39-.56,2.25,2.25,0,0,0-1.75.67,2.67,2.67,0,0,0-.62,1.9v1.51a2.47,2.47,0,0,0,.68,1.87,2.59,2.59,0,0,0,1.89.66,3.58,3.58,0,0,0,1.24-.23,3.44,3.44,0,0,0,1.12-.63l2,1.81a6.85,6.85,0,0,1-2.07,1.31A6.2,6.2,0,0,1,252.39,647.53Z" transform="translate(-151 -117.42)"/><path d="M259.83,647.36V635.53H263v11.83Zm6.89,0v-6.83a2.31,2.31,0,0,0-.5-1.6,1.88,1.88,0,0,0-1.46-.56,1.78,1.78,0,0,0-1.33.48,1.87,1.87,0,0,0-.48,1.36l-.24-2.62a4.49,4.49,0,0,1,1.3-1.65,3.07,3.07,0,0,1,1.86-.58,3.49,3.49,0,0,1,2.94,1.35,6.14,6.14,0,0,1,1,3.81v6.84Zm6.9,0v-6.83a2.36,2.36,0,0,0-.5-1.6,1.79,1.79,0,0,0-1.41-.56,1.75,1.75,0,0,0-1.38.54,2.23,2.23,0,0,0-.48,1.53l-.58-2.73a4.4,4.4,0,0,1,1.45-1.74,3.79,3.79,0,0,1,5,.74,6,6,0,0,1,1.06,3.81v6.84Z" transform="translate(-151 -117.42)"/><path d="M284.58,647.53a5,5,0,0,1-3.77-1.35,5.18,5.18,0,0,1-1.34-3.8v-1.93a5.11,5.11,0,1,1,10.21,0v2a4.65,4.65,0,0,1-5.1,5.12Zm0-3A1.92,1.92,0,0,0,286,644a2.22,2.22,0,0,0,.52-1.56v-2a2.15,2.15,0,0,0-.52-1.53,1.92,1.92,0,0,0-1.47-.55,1.9,1.9,0,0,0-1.46.55,2.15,2.15,0,0,0-.52,1.53v2a2.22,2.22,0,0,0,.52,1.56A1.9,1.9,0,0,0,284.57,644.52Z" transform="translate(-151 -117.42)"/><path d="M292.53,647.36V635.53h3.35v11.83Zm6.65-8.53a1.3,1.3,0,0,0-.55-.35,2.55,2.55,0,0,0-.77-.11,1.79,1.79,0,0,0-1.46.61,2.51,2.51,0,0,0-.52,1.69l-.24-3.08a4.43,4.43,0,0,1,1.27-1.64,2.79,2.79,0,0,1,1.71-.59,3.56,3.56,0,0,1,1.34.24,2.82,2.82,0,0,1,1.05.69Z" transform="translate(-151 -117.42)"/><path d="M306.18,648.33l-4.95-12.8h2.94l4,10.28Zm3-12.8h2.94l-5.26,14.6a3.15,3.15,0,0,1-1.24,1.69,4.24,4.24,0,0,1-2.17.47h-.7v-3h.7a1.44,1.44,0,0,0,.82-.22,1.31,1.31,0,0,0,.52-.72Z" transform="translate(-151 -117.42)"/><path d="M174.23,477.11a4.16,4.16,0,0,1-2.68-.74,2.78,2.78,0,0,1-.89-2.26,2.68,2.68,0,0,1,.82-2.16,3.6,3.6,0,0,1,2.45-.72h2.75l.13,1.53h-2.87a1.64,1.64,0,0,0-1.11.34,1.28,1.28,0,0,0-.38,1,1.26,1.26,0,0,0,.5,1.09,2.5,2.5,0,0,0,1.48.36,4.2,4.2,0,0,0,1.63-.24.77.77,0,0,0,.54-.73l.2,1.37a2.26,2.26,0,0,1-.63.64,2.63,2.63,0,0,1-.85.38A4.52,4.52,0,0,1,174.23,477.11Zm2.37-.14v-6.15a2,2,0,0,0-.51-1.48,1.92,1.92,0,0,0-1.44-.53,3.66,3.66,0,0,0-1.13.18,3.08,3.08,0,0,0-1,.5l-1.39-1a3.64,3.64,0,0,1,1.45-1,5.35,5.35,0,0,1,2-.37,3.93,3.93,0,0,1,2.82.95,3.46,3.46,0,0,1,1,2.66V477Z" transform="translate(-151 -117.42)"/><path d="M184.38,477.13a3.06,3.06,0,0,1-2.48-1,4.36,4.36,0,0,1-.87-2.91v-2.13a4.46,4.46,0,0,1,.85-2.92,2.94,2.94,0,0,1,2.41-1,2.89,2.89,0,0,1,1.57.44,3.34,3.34,0,0,1,1.15,1.26l-.19,2a2.26,2.26,0,0,0-.23-1.05,1.5,1.5,0,0,0-.65-.67,2.15,2.15,0,0,0-1-.23,1.84,1.84,0,0,0-1.46.59,2.38,2.38,0,0,0-.52,1.65v2.11a2.31,2.31,0,0,0,.52,1.63,1.83,1.83,0,0,0,1.46.58,2,2,0,0,0,1-.24,1.55,1.55,0,0,0,.65-.69,2.35,2.35,0,0,0,.23-1.07l.13,2a3,3,0,0,1-.9,1.18A2.62,2.62,0,0,1,184.38,477.13Zm2.44-.16V463.39h1.9V477Z" transform="translate(-151 -117.42)"/><path d="M194.69,477.13a3.06,3.06,0,0,1-2.48-1,4.36,4.36,0,0,1-.87-2.91v-2.13a4.46,4.46,0,0,1,.85-2.92,2.94,2.94,0,0,1,2.41-1,2.89,2.89,0,0,1,1.57.44,3.27,3.27,0,0,1,1.15,1.26l-.19,2a2.26,2.26,0,0,0-.23-1.05,1.5,1.5,0,0,0-.65-.67,2.15,2.15,0,0,0-1-.23,1.84,1.84,0,0,0-1.46.59,2.38,2.38,0,0,0-.52,1.65v2.11a2.31,2.31,0,0,0,.52,1.63,1.83,1.83,0,0,0,1.46.58,2,2,0,0,0,1-.24,1.55,1.55,0,0,0,.65-.69,2.35,2.35,0,0,0,.23-1.07l.13,2a3,3,0,0,1-.9,1.18A2.62,2.62,0,0,1,194.69,477.13Zm2.44-.16V463.39H199V477Z" transform="translate(-151 -117.42)"/><path d="M201.93,477v-9.7h1.9V477Zm5.33-7.4a1.69,1.69,0,0,0-.64-.47,2.39,2.39,0,0,0-.88-.15,1.72,1.72,0,0,0-1.91,1.88l-.2-1.87a3.55,3.55,0,0,1,1.16-1.34,2.68,2.68,0,0,1,1.57-.49,3.51,3.51,0,0,1,1.2.2,2.56,2.56,0,0,1,.94.56Z" transform="translate(-151 -117.42)"/><rect x="30.67" y="323.45" width="11.22" height="11.22"/><path d="M176.75,531.92l4-9h1.79v13.58h-1.86V526.37l.09.59-3.34,7.69h-1.33l-3.34-7.5.09-.78v10.17H171V523h1.79Z" transform="translate(-151 -117.42)"/><path d="M189.66,536.68a4.22,4.22,0,0,1-3.14-1.13,4.42,4.42,0,0,1-1.11-3.22v-1.09a4.85,4.85,0,0,1,1.07-3.35,3.85,3.85,0,0,1,3-1.19,3.34,3.34,0,0,1,2.84,1.35,6.19,6.19,0,0,1,1,3.77v.64h-6.54v-1.54h4.73a3.35,3.35,0,0,0-.61-1.84,1.73,1.73,0,0,0-1.42-.66,2.08,2.08,0,0,0-1.67.71,3,3,0,0,0-.6,2v1.23a2.55,2.55,0,0,0,.64,1.85,2.44,2.44,0,0,0,1.8.65,2.93,2.93,0,0,0,1.15-.24,3.22,3.22,0,0,0,1-.65l1.25,1.25a5.25,5.25,0,0,1-1.62,1.07A4.62,4.62,0,0,1,189.66,536.68Z" transform="translate(-151 -117.42)"/><path d="M196,536.54v-9.7h1.9v9.7Zm5.79,0v-5.88a2.26,2.26,0,0,0-.51-1.58,1.8,1.8,0,0,0-1.43-.56,2,2,0,0,0-1.44.49,1.84,1.84,0,0,0-.51,1.39l-.2-1.87a3.47,3.47,0,0,1,1.18-1.35,2.81,2.81,0,0,1,1.6-.48,2.88,2.88,0,0,1,2.37,1,4.48,4.48,0,0,1,.84,2.91v5.89Zm5.78,0v-5.88a2.21,2.21,0,0,0-.52-1.58,1.93,1.93,0,0,0-1.5-.56,1.74,1.74,0,0,0-1.37.54,2.18,2.18,0,0,0-.49,1.53l-.38-1.87a3.7,3.7,0,0,1,1.21-1.49,2.82,2.82,0,0,1,1.65-.53,3,3,0,0,1,2.45,1,4.43,4.43,0,0,1,.86,2.91v5.89Z" transform="translate(-151 -117.42)"/><path d="M214.74,533.6,217.53,523h1.3l2.79,10.64L224,523h2l-3.32,13.58h-1.94l-2.5-9.49-2.62,9.49h-1.94L210.36,523h2Z" transform="translate(-151 -117.42)"/><path d="M227.3,536.54v-9.7h1.91v9.7Zm5.34-7.4a1.69,1.69,0,0,0-.64-.47,2.4,2.4,0,0,0-.89-.15,1.72,1.72,0,0,0-1.9,1.88l-.2-1.87a3.55,3.55,0,0,1,1.16-1.34,2.75,2.75,0,0,1,1.57-.49,3.51,3.51,0,0,1,1.2.2,2.56,2.56,0,0,1,.94.56Z" transform="translate(-151 -117.42)"/><path d="M235.47,524.86V523h1.9v1.9Zm0,11.68v-9.7h1.9v9.7Z" transform="translate(-151 -117.42)"/><path d="M239.52,528.56v-1.72h4.37v1.72Zm3.27,8a2.12,2.12,0,0,1-1.74-.66,3,3,0,0,1-.53-1.9V524h1.9v10a1,1,0,0,0,.14.55.48.48,0,0,0,.41.19h.92v1.81Z" transform="translate(-151 -117.42)"/><path d="M250.47,536.68a4.24,4.24,0,0,1-3.14-1.13,4.42,4.42,0,0,1-1.11-3.22v-1.09a4.85,4.85,0,0,1,1.07-3.35,3.86,3.86,0,0,1,3-1.19,3.34,3.34,0,0,1,2.84,1.35,6.19,6.19,0,0,1,1,3.77v.64h-6.53v-1.54h4.72a3.35,3.35,0,0,0-.61-1.84,1.71,1.71,0,0,0-1.42-.66,2.08,2.08,0,0,0-1.67.71,3,3,0,0,0-.59,2v1.23a2.51,2.51,0,0,0,.64,1.85,2.4,2.4,0,0,0,1.79.65,2.93,2.93,0,0,0,1.15-.24,3.22,3.22,0,0,0,1-.65l1.25,1.25a5.25,5.25,0,0,1-1.62,1.07A4.58,4.58,0,0,1,250.47,536.68Z" transform="translate(-151 -117.42)"/><path d="M177.18,581.29l4-9H183V585.9h-1.86V575.73l.09.6L177.84,584h-1.33l-3.34-7.5.09-.79V585.9H171.4V572.32h1.79Z" transform="translate(-151 -117.42)"/><path d="M190.09,586a4.18,4.18,0,0,1-3.14-1.13,4.38,4.38,0,0,1-1.11-3.21v-1.09a4.87,4.87,0,0,1,1.07-3.36,3.84,3.84,0,0,1,3-1.18,3.35,3.35,0,0,1,2.84,1.34,6.22,6.22,0,0,1,1,3.78v.63h-6.54v-1.53H192a3.32,3.32,0,0,0-.61-1.84,1.73,1.73,0,0,0-1.42-.66,2.05,2.05,0,0,0-1.67.71,3,3,0,0,0-.6,2v1.24a2.55,2.55,0,0,0,.64,1.85,2.43,2.43,0,0,0,1.8.64,3.1,3.1,0,0,0,1.15-.23,3.44,3.44,0,0,0,1-.66l1.25,1.25a5.08,5.08,0,0,1-1.62,1.07A4.45,4.45,0,0,1,190.09,586Z" transform="translate(-151 -117.42)"/><path d="M196.38,585.9v-9.69h1.9v9.69Zm5.79,0V580a2.27,2.27,0,0,0-.51-1.59,1.84,1.84,0,0,0-1.43-.56,2,2,0,0,0-1.44.5,1.84,1.84,0,0,0-.51,1.39l-.2-1.87a3.43,3.43,0,0,1,1.18-1.36,3.13,3.13,0,0,1,4,.56,4.51,4.51,0,0,1,.84,2.92v5.88Zm5.79,0V580a2.23,2.23,0,0,0-.53-1.59,2,2,0,0,0-1.5-.56,1.74,1.74,0,0,0-1.37.54,2.18,2.18,0,0,0-.49,1.53l-.38-1.86a3.74,3.74,0,0,1,1.21-1.5,2.81,2.81,0,0,1,1.65-.52,3,3,0,0,1,2.45,1,4.46,4.46,0,0,1,.86,2.92v5.88Z" transform="translate(-151 -117.42)"/><path d="M212.94,585.9V572.31h1.91V585.9Zm.83-5.74v-1.81h4.64a1.7,1.7,0,0,0,1.33-.58,2.24,2.24,0,0,0,.5-1.53,2.21,2.21,0,0,0-.5-1.53,1.67,1.67,0,0,0-1.33-.58h-4.64v-1.82h4.56a4.28,4.28,0,0,1,2.07.49,3.5,3.5,0,0,1,1.38,1.37,4.6,4.6,0,0,1,0,4.13,3.56,3.56,0,0,1-1.38,1.37,4.17,4.17,0,0,1-2.07.49Zm6.81,5.74-3.11-6.16,1.9-.43,3.47,6.59Z" transform="translate(-151 -117.42)"/><path d="M228.82,586a4.18,4.18,0,0,1-3.14-1.13,4.38,4.38,0,0,1-1.11-3.21v-1.09a4.83,4.83,0,0,1,1.07-3.36,3.83,3.83,0,0,1,3-1.18,3.34,3.34,0,0,1,2.83,1.34,6.22,6.22,0,0,1,1,3.78v.63H226v-1.53h4.73a3.25,3.25,0,0,0-.62-1.84,1.71,1.71,0,0,0-1.41-.66,2,2,0,0,0-1.67.71,3,3,0,0,0-.6,2v1.24a2.51,2.51,0,0,0,.64,1.85,2.43,2.43,0,0,0,1.8.64A3.14,3.14,0,0,0,230,584a3.27,3.27,0,0,0,1-.66l1.26,1.25a5.08,5.08,0,0,1-1.62,1.07A4.48,4.48,0,0,1,228.82,586Z" transform="translate(-151 -117.42)"/><path d="M238.2,586a4.05,4.05,0,0,1-2.67-.74,3.3,3.3,0,0,1-.08-4.42,3.67,3.67,0,0,1,2.45-.71h2.76l.13,1.53h-2.88a1.64,1.64,0,0,0-1.11.33,1.28,1.28,0,0,0-.37,1,1.26,1.26,0,0,0,.49,1.1,2.62,2.62,0,0,0,1.49.35,4.42,4.42,0,0,0,1.62-.23.77.77,0,0,0,.54-.73l.2,1.36a2.27,2.27,0,0,1-.62.65,2.92,2.92,0,0,1-.86.38A4.49,4.49,0,0,1,238.2,586Zm2.37-.14v-6.14a2.07,2.07,0,0,0-.5-1.48,1.93,1.93,0,0,0-1.45-.53,3.9,3.9,0,0,0-1.12.17,3.47,3.47,0,0,0-1,.5l-1.39-.95a3.61,3.61,0,0,1,1.45-1,5.18,5.18,0,0,1,2-.37,4,4,0,0,1,2.82.94,3.51,3.51,0,0,1,1,2.66v6.23Z" transform="translate(-151 -117.42)"/><path d="M248.35,586.07a3.07,3.07,0,0,1-2.48-1,4.39,4.39,0,0,1-.87-2.91V580a4.46,4.46,0,0,1,.86-2.92,2.94,2.94,0,0,1,2.4-1,2.87,2.87,0,0,1,1.57.45,3.37,3.37,0,0,1,1.16,1.26l-.2,2a2.33,2.33,0,0,0-.22-1.06,1.53,1.53,0,0,0-.65-.66,2.09,2.09,0,0,0-1-.23,1.84,1.84,0,0,0-1.47.59,2.43,2.43,0,0,0-.51,1.65v2.11a2.38,2.38,0,0,0,.51,1.63,1.9,1.9,0,0,0,1.47.57,2.21,2.21,0,0,0,1-.23,1.61,1.61,0,0,0,.65-.69,2.39,2.39,0,0,0,.22-1.08l.13,2a2.77,2.77,0,0,1-.9,1.17A2.55,2.55,0,0,1,248.35,586.07Zm2.44-.17V572.32h1.91V585.9Z" transform="translate(-151 -117.42)"/><rect y="407.97" width="11.22" height="11.22"/><rect y="456.59" width="11.22" height="11.22"/><path d="M309.26,490.72V477.14h1.9v13.58Zm1.29,0V488.9h3.07a3.26,3.26,0,0,0,2.33-.78,2.88,2.88,0,0,0,.83-2.2v-4a2.88,2.88,0,0,0-.83-2.2,3.26,3.26,0,0,0-2.33-.78h-3.07v-1.81h3a5.34,5.34,0,0,1,3.82,1.27,4.7,4.7,0,0,1,1.35,3.59v3.85a5.27,5.27,0,0,1-.61,2.63,3.93,3.93,0,0,1-1.76,1.66,6.34,6.34,0,0,1-2.81.58Z" transform="translate(-151 -117.42)"/><path d="M324.72,490.86a4.11,4.11,0,0,1-2.67-.74,2.75,2.75,0,0,1-.89-2.26,2.71,2.71,0,0,1,.81-2.16,3.62,3.62,0,0,1,2.45-.72h2.76l.13,1.53h-2.88a1.64,1.64,0,0,0-1.11.33,1.3,1.3,0,0,0-.37,1,1.25,1.25,0,0,0,.49,1.09,2.54,2.54,0,0,0,1.49.36,4.18,4.18,0,0,0,1.62-.24.78.78,0,0,0,.55-.73l.19,1.37a2.37,2.37,0,0,1-.62.64,2.68,2.68,0,0,1-.86.38A4.46,4.46,0,0,1,324.72,490.86Zm2.38-.14v-6.15a2,2,0,0,0-.51-1.48,1.93,1.93,0,0,0-1.45-.53,3.59,3.59,0,0,0-1.12.18,3.24,3.24,0,0,0-1,.5l-1.39-1a3.71,3.71,0,0,1,1.45-1,5.41,5.41,0,0,1,2-.37,4,4,0,0,1,2.82.95,3.48,3.48,0,0,1,1,2.66v6.23Z" transform="translate(-151 -117.42)"/><path d="M331.06,482.74V481h4.37v1.72Zm3.26,8a2.11,2.11,0,0,1-1.73-.66,3,3,0,0,1-.54-1.91v-10H334v10a.94.94,0,0,0,.14.54.45.45,0,0,0,.41.2h.92v1.81Z" transform="translate(-151 -117.42)"/><path d="M341.14,490.86a4.16,4.16,0,0,1-2.68-.74,2.78,2.78,0,0,1-.89-2.26,2.72,2.72,0,0,1,.82-2.16,3.62,3.62,0,0,1,2.45-.72h2.76l.13,1.53h-2.88a1.64,1.64,0,0,0-1.11.33,1.3,1.3,0,0,0-.37,1,1.25,1.25,0,0,0,.49,1.09,2.54,2.54,0,0,0,1.49.36,4.18,4.18,0,0,0,1.62-.24.77.77,0,0,0,.54-.73l.2,1.37a2.26,2.26,0,0,1-.63.64,2.63,2.63,0,0,1-.85.38A4.52,4.52,0,0,1,341.14,490.86Zm2.37-.14v-6.15a2,2,0,0,0-.51-1.48,1.92,1.92,0,0,0-1.44-.53,3.59,3.59,0,0,0-1.12.18,3,3,0,0,0-1,.5l-1.39-1a3.71,3.71,0,0,1,1.45-1,5.35,5.35,0,0,1,2-.37,3.93,3.93,0,0,1,2.82.95,3.45,3.45,0,0,1,1,2.66v6.23Z" transform="translate(-151 -117.42)"/><path d="M352.9,490.86a4.94,4.94,0,0,1-2.51-.62,4.23,4.23,0,0,1-1.67-1.76,5.52,5.52,0,0,1-.59-2.63V482a5.49,5.49,0,0,1,.59-2.63,4.21,4.21,0,0,1,1.67-1.75,5.39,5.39,0,0,1,5,0,4.27,4.27,0,0,1,1.67,1.75,5.61,5.61,0,0,1,.59,2.63v3.85a5.63,5.63,0,0,1-.59,2.63,4.3,4.3,0,0,1-1.67,1.76A5,5,0,0,1,352.9,490.86Zm0-1.88a2.66,2.66,0,0,0,2.05-.84,3.17,3.17,0,0,0,.77-2.22v-4a3.18,3.18,0,0,0-.77-2.23,2.95,2.95,0,0,0-4.1,0,3.18,3.18,0,0,0-.77,2.23v4a3.17,3.17,0,0,0,.77,2.22A2.66,2.66,0,0,0,352.9,489Z" transform="translate(-151 -117.42)"/><path d="M362.47,481v5.9a2.2,2.2,0,0,0,.52,1.57,1.89,1.89,0,0,0,1.46.55,2,2,0,0,0,1.45-.5,1.87,1.87,0,0,0,.51-1.4l.13,2a2.92,2.92,0,0,1-.91,1.17,2.72,2.72,0,0,1-1.71.52,3.07,3.07,0,0,1-2.48-1,4.35,4.35,0,0,1-.88-2.9V481Zm3.94,9.7V481h1.9v9.7Z" transform="translate(-151 -117.42)"/><path d="M370.45,482.74V481h4.37v1.72Zm3.27,8a2.11,2.11,0,0,1-1.73-.66,3,3,0,0,1-.54-1.91v-10h1.91v10a.94.94,0,0,0,.14.54.45.45,0,0,0,.41.2h.91v1.81Z" transform="translate(-151 -117.42)"/><rect x="229.78" y="362.15" width="11.22" height="11.22"/><path d="M999.57,399V721h-261V399h261m3-3h-267V724h267V396Z" transform="translate(-151 -117.42)"/><path d="M795.43,691.26V674.69h3.12v16.57Zm1.24-6.66v-3h5.76a1.42,1.42,0,0,0,1.17-.54,2.2,2.2,0,0,0,.45-1.41,2.18,2.18,0,0,0-.44-1.41,1.43,1.43,0,0,0-1.18-.54h-5.76v-3h6a4.59,4.59,0,0,1,2.41.61,4.18,4.18,0,0,1,1.6,1.73,5.7,5.7,0,0,1,.57,2.61,5.64,5.64,0,0,1-.57,2.61,4.32,4.32,0,0,1-1.6,1.73,4.62,4.62,0,0,1-2.41.62Zm7.51,6.66-4-7.18,3.34-.52,4.47,7.7Z" transform="translate(-151 -117.42)"/><path d="M815,691.43a5.48,5.48,0,0,1-4-1.38,5.21,5.21,0,0,1-1.42-3.92V684.8a5.74,5.74,0,0,1,1.36-4.09,5,5,0,0,1,3.85-1.44,4.27,4.27,0,0,1,3.63,1.72,8.05,8.05,0,0,1,1.28,4.86v.78h-8.09v-2.11h5.24l0-.28a2.75,2.75,0,0,0-.63-1.57,1.79,1.79,0,0,0-1.39-.57,2.27,2.27,0,0,0-1.75.67,2.7,2.7,0,0,0-.62,1.91v1.5a2.46,2.46,0,0,0,.68,1.87,2.59,2.59,0,0,0,1.89.66,3.57,3.57,0,0,0,1.24-.22,3.85,3.85,0,0,0,1.12-.63l2,1.81a7,7,0,0,1-2.07,1.3A6.2,6.2,0,0,1,815,691.43Z" transform="translate(-151 -117.42)"/><path d="M826.1,691.43a3.49,3.49,0,0,1-2.94-1.34,6,6,0,0,1-1-3.77v-1.89a6.14,6.14,0,0,1,1-3.81,3.47,3.47,0,0,1,2.94-1.35,2.83,2.83,0,0,1,1.72.56,4,4,0,0,1,1.26,1.6l-.24,2.62a2.49,2.49,0,0,0-.2-1,1.49,1.49,0,0,0-.6-.64,1.88,1.88,0,0,0-.95-.22,1.64,1.64,0,0,0-1.36.6,2.57,2.57,0,0,0-.49,1.68v1.88a2.47,2.47,0,0,0,.49,1.64,1.68,1.68,0,0,0,1.36.58,1.88,1.88,0,0,0,.95-.22,1.44,1.44,0,0,0,.6-.62,2.33,2.33,0,0,0,.2-1l.16,2.69a3,3,0,0,1-1.11,1.5A3,3,0,0,1,826.1,691.43Zm.55,4.64a6.13,6.13,0,0,1-2.52-.5,4,4,0,0,1-1.73-1.39l2.1-1.93a2.94,2.94,0,0,0,1,.66,2.9,2.9,0,0,0,1.16.24,2.39,2.39,0,0,0,1.58-.52,1.81,1.81,0,0,0,.64-1.49v-11.7H832v11.47a5.09,5.09,0,0,1-1.38,3.81A5.39,5.39,0,0,1,826.65,696.07Z" transform="translate(-151 -117.42)"/><path d="M834.87,677.82V674.7H838v3.12Zm0,13.44V679.44H838v11.82Z" transform="translate(-151 -117.42)"/><path d="M845.42,691.43a10.79,10.79,0,0,1-3-.42,7.68,7.68,0,0,1-2.45-1.2l1.92-2.4a7.11,7.11,0,0,0,1.79.84,5.83,5.83,0,0,0,1.78.3,4.8,4.8,0,0,0,1.7-.24c.4-.17.6-.39.6-.68a.72.72,0,0,0-.42-.72,3.49,3.49,0,0,0-1.08-.26c-.45,0-.93-.09-1.43-.16s-1-.15-1.51-.25a4.85,4.85,0,0,1-1.36-.46,2.43,2.43,0,0,1-1-1,3.74,3.74,0,0,1-.36-1.79,3.29,3.29,0,0,1,1.26-2.76,5.69,5.69,0,0,1,3.58-1,9.38,9.38,0,0,1,2.67.39,8.39,8.39,0,0,1,2.35,1.13l-1.86,2.27a7.31,7.31,0,0,0-1.61-.67,5.94,5.94,0,0,0-1.62-.24,4.09,4.09,0,0,0-1.47.21c-.35.14-.52.34-.52.61a.54.54,0,0,0,.36.51,3.32,3.32,0,0,0,1,.25l1.27.15c.53.06,1,.13,1.59.22a5.21,5.21,0,0,1,1.46.47,2.76,2.76,0,0,1,1.08,1,3.8,3.8,0,0,1,.41,1.92,3.46,3.46,0,0,1-1.33,2.88A6,6,0,0,1,845.42,691.43Z" transform="translate(-151 -117.42)"/><path d="M852.08,682.1v-2.66h5.79v2.66Zm4.22,9.22a2.88,2.88,0,0,1-2.29-.81,3.42,3.42,0,0,1-.71-2.32V676h3.12v11.41a1.15,1.15,0,0,0,.17.66.6.6,0,0,0,.51.24h.77v3Z" transform="translate(-151 -117.42)"/><path d="M865.67,691.43a5.5,5.5,0,0,1-4-1.38,5.25,5.25,0,0,1-1.42-3.92V684.8a5.79,5.79,0,0,1,1.36-4.09,5,5,0,0,1,3.85-1.44A4.27,4.27,0,0,1,869.1,681a8.05,8.05,0,0,1,1.28,4.86v.78h-8.09v-2.11h5.24l0-.28a2.83,2.83,0,0,0-.64-1.57,1.78,1.78,0,0,0-1.39-.57,2.29,2.29,0,0,0-1.75.67,2.74,2.74,0,0,0-.62,1.91v1.5a2.49,2.49,0,0,0,.68,1.87,2.59,2.59,0,0,0,1.89.66,3.62,3.62,0,0,0,1.25-.22,3.8,3.8,0,0,0,1.11-.63l2,1.81A6.77,6.77,0,0,1,868,691,6.16,6.16,0,0,1,865.67,691.43Z" transform="translate(-151 -117.42)"/><path d="M873.11,691.26V679.44h3.35v11.82Zm6.66-8.53a1.32,1.32,0,0,0-.56-.34,2.24,2.24,0,0,0-.76-.12,1.84,1.84,0,0,0-1.47.61,2.57,2.57,0,0,0-.52,1.69l-.24-3.07a4.27,4.27,0,0,1,1.27-1.64,2.76,2.76,0,0,1,1.72-.59,3.59,3.59,0,0,1,1.34.23,2.79,2.79,0,0,1,1,.69Z" transform="translate(-151 -117.42)"/><path d="M889.56,691.26V674.7h3.13v16.56Zm1.37,0v-3h5.29a2.48,2.48,0,0,0,1.66-.51,1.85,1.85,0,0,0,.58-1.46v0a1.83,1.83,0,0,0-.58-1.46,2.43,2.43,0,0,0-1.66-.52h-5.29v-3h5.29a2.14,2.14,0,0,0,1.5-.49,1.81,1.81,0,0,0,.53-1.38,1.55,1.55,0,0,0-.53-1.25,2.33,2.33,0,0,0-1.5-.44h-5.29v-3h5.39a5.46,5.46,0,0,1,3.74,1.17,4.18,4.18,0,0,1,1.33,3.32,3.39,3.39,0,0,1-.85,2.38,3.94,3.94,0,0,1-2.4,1.2A4.06,4.06,0,0,1,900.7,684a4,4,0,0,1,.91,2.69v0a4.19,4.19,0,0,1-1.34,3.33,5.45,5.45,0,0,1-3.76,1.18Z" transform="translate(-151 -117.42)"/><path d="M907.61,691.43a4,4,0,0,1-2.84-.9,3.64,3.64,0,0,1-.94-2.75,3.23,3.23,0,0,1,1-2.64,4.88,4.88,0,0,1,3.16-.87h3l.16,2.38h-3.12a1.63,1.63,0,0,0-1,.28,1,1,0,0,0-.36.85,1,1,0,0,0,.45.86,2.65,2.65,0,0,0,1.34.28,4.62,4.62,0,0,0,1.86-.29.93.93,0,0,0,.61-.89l.24,1.72a1.55,1.55,0,0,1-.6,1.11,3.4,3.4,0,0,1-1.32.65A6.18,6.18,0,0,1,907.61,691.43Zm3.29-.17v-7.49a1.56,1.56,0,0,0-.54-1.27,2.38,2.38,0,0,0-1.55-.44,4.22,4.22,0,0,0-1.31.21,3.42,3.42,0,0,0-1.15.61L904.41,681a4.72,4.72,0,0,1,1.87-1.26,7.26,7.26,0,0,1,2.57-.44,5.18,5.18,0,0,1,3.61,1.15,4.14,4.14,0,0,1,1.28,3.24v7.6Z" transform="translate(-151 -117.42)"/><path d="M916.82,691.26V679.44h3.12v11.82Zm6.83,0V684.1a1.76,1.76,0,0,0-.49-1.35,1.94,1.94,0,0,0-1.41-.48,1.77,1.77,0,0,0-1.34.49,1.83,1.83,0,0,0-.47,1.36l-.24-2.62a4.44,4.44,0,0,1,1.25-1.65,3,3,0,0,1,1.9-.58,3.53,3.53,0,0,1,2.9,1.25,5.53,5.53,0,0,1,1,3.56v7.18Z" transform="translate(-151 -117.42)"/><path d="M929.85,691.26V674.7H933v16.56Zm1.88-.82-.42-3.44,5.51-7.56h3.31Zm5.36.82-3-6.1,2.57-1.55,4,7.65Z" transform="translate(-151 -117.42)"/><path d="M751.37,426.87V413.28h1.91v13.59Zm.83-5.74v-1.81h4.64a1.7,1.7,0,0,0,1.33-.58,2.57,2.57,0,0,0,0-3.07,1.7,1.7,0,0,0-1.33-.58H752.2v-1.81h4.56a4.28,4.28,0,0,1,2.07.49,3.5,3.5,0,0,1,1.38,1.37,4.14,4.14,0,0,1,.49,2.07,4.09,4.09,0,0,1-.49,2.05,3.52,3.52,0,0,1-1.38,1.38,4.28,4.28,0,0,1-2.07.49Zm6.81,5.74-3.11-6.16,1.9-.43,3.47,6.59Z" transform="translate(-151 -117.42)"/><path d="M767.25,427a4.22,4.22,0,0,1-3.14-1.13,4.38,4.38,0,0,1-1.11-3.21v-1.09a4.86,4.86,0,0,1,1.07-3.36,3.84,3.84,0,0,1,3-1.18,3.32,3.32,0,0,1,2.83,1.34,6.21,6.21,0,0,1,1,3.77v.64h-6.54v-1.53h4.73a3.22,3.22,0,0,0-.62-1.84,1.72,1.72,0,0,0-1.41-.67,2.07,2.07,0,0,0-1.67.71,3.05,3.05,0,0,0-.6,2v1.24a2.47,2.47,0,0,0,.64,1.84,2.44,2.44,0,0,0,1.8.65,3,3,0,0,0,1.15-.24,3.07,3.07,0,0,0,1-.65l1.26,1.25a5.25,5.25,0,0,1-1.62,1.07A4.66,4.66,0,0,1,767.25,427Z" transform="translate(-151 -117.42)"/><path d="M776.61,427a3.08,3.08,0,0,1-2.48-1,4.34,4.34,0,0,1-.88-2.91V421a4.46,4.46,0,0,1,.86-2.92,3.19,3.19,0,0,1,4-.58,3.34,3.34,0,0,1,1.15,1.26l-.2,2a2.31,2.31,0,0,0-.22-1.06,1.61,1.61,0,0,0-.65-.67,2.18,2.18,0,0,0-1-.22,1.83,1.83,0,0,0-1.46.58,2.43,2.43,0,0,0-.52,1.66v2.11a2.35,2.35,0,0,0,.52,1.63,1.86,1.86,0,0,0,1.46.57,2.06,2.06,0,0,0,1-.24,1.58,1.58,0,0,0,.65-.68,2.39,2.39,0,0,0,.22-1.08l.13,2.05a2.89,2.89,0,0,1-.9,1.17A2.52,2.52,0,0,1,776.61,427Zm.17,3.77a4.36,4.36,0,0,1-1.95-.41,3.07,3.07,0,0,1-1.34-1.14l1.29-1.17a2.51,2.51,0,0,0,.89.8,2.5,2.5,0,0,0,2.78-.32,2.37,2.37,0,0,0,.59-1.71v-9.68H781v9.4a4.22,4.22,0,0,1-1.09,3.12A4.12,4.12,0,0,1,776.78,430.81Z" transform="translate(-151 -117.42)"/><path d="M786.26,423.94,789,413.29h1.31l2.78,10.65,2.4-10.65h2l-3.31,13.58h-1.94l-2.51-9.49-2.61,9.49H785.2l-3.32-13.58h2Z" transform="translate(-151 -117.42)"/><path d="M798.82,426.87v-9.69h1.91v9.69Zm5.33-7.4a1.54,1.54,0,0,0-.63-.46,2.24,2.24,0,0,0-.89-.16,1.86,1.86,0,0,0-1.4.5,1.83,1.83,0,0,0-.5,1.38l-.2-1.86a3.56,3.56,0,0,1,1.15-1.35,2.77,2.77,0,0,1,1.58-.48,3.51,3.51,0,0,1,1.2.19,2.8,2.8,0,0,1,.94.56Z" transform="translate(-151 -117.42)"/><path d="M807,415.2v-1.91h1.91v1.91Zm0,11.67v-9.69h1.91v9.69Z" transform="translate(-151 -117.42)"/><path d="M811,418.9v-1.72h4.37v1.72Zm3.26,8a2.09,2.09,0,0,1-1.73-.67,2.93,2.93,0,0,1-.53-1.9v-10h1.9v10a.94.94,0,0,0,.14.54.47.47,0,0,0,.41.2h.92v1.81Z" transform="translate(-151 -117.42)"/><path d="M822,427a4.22,4.22,0,0,1-3.14-1.13,4.38,4.38,0,0,1-1.11-3.21v-1.09a4.86,4.86,0,0,1,1.07-3.36,3.84,3.84,0,0,1,3-1.18,3.35,3.35,0,0,1,2.84,1.34,6.21,6.21,0,0,1,1,3.77v.64h-6.54v-1.53h4.73a3.3,3.3,0,0,0-.61-1.84,1.74,1.74,0,0,0-1.42-.67,2.08,2.08,0,0,0-1.67.71,3.05,3.05,0,0,0-.6,2v1.24a2.51,2.51,0,0,0,.64,1.84,2.44,2.44,0,0,0,1.8.65,2.93,2.93,0,0,0,1.15-.24,3.22,3.22,0,0,0,1-.65l1.25,1.25a5.25,5.25,0,0,1-1.62,1.07A4.66,4.66,0,0,1,822,427Z" transform="translate(-151 -117.42)"/><rect x="627.73" y="273.35" width="11.22" height="11.22"/><path d="M751,490.44V476.85h1.91v13.59Zm.83-5.74v-1.81h4.64a1.69,1.69,0,0,0,1.33-.58,2.57,2.57,0,0,0,0-3.07,1.68,1.68,0,0,0-1.33-.57h-4.64v-1.82h4.56a4.28,4.28,0,0,1,2.07.49,3.5,3.5,0,0,1,1.38,1.37,4.14,4.14,0,0,1,.49,2.07,4.09,4.09,0,0,1-.49,2.05,3.52,3.52,0,0,1-1.38,1.38,4.28,4.28,0,0,1-2.07.49Zm6.81,5.74-3.11-6.16,1.9-.43,3.47,6.59Z" transform="translate(-151 -117.42)"/><path d="M766.91,490.58a4.22,4.22,0,0,1-3.14-1.13,4.38,4.38,0,0,1-1.11-3.21v-1.09a4.86,4.86,0,0,1,1.07-3.36,3.84,3.84,0,0,1,3-1.18,3.32,3.32,0,0,1,2.83,1.34,6.21,6.21,0,0,1,1,3.77v.64H764v-1.53h4.73a3.22,3.22,0,0,0-.62-1.84,1.71,1.71,0,0,0-1.41-.66,2,2,0,0,0-1.67.71,3,3,0,0,0-.6,2v1.24a2.47,2.47,0,0,0,.64,1.84,2.44,2.44,0,0,0,1.8.65,3.14,3.14,0,0,0,1.15-.23,3.27,3.27,0,0,0,1-.66l1.26,1.25a5.25,5.25,0,0,1-1.62,1.07A4.66,4.66,0,0,1,766.91,490.58Z" transform="translate(-151 -117.42)"/><path d="M776.27,490.61a3.08,3.08,0,0,1-2.48-1,4.34,4.34,0,0,1-.88-2.91v-2.14a4.46,4.46,0,0,1,.86-2.92,2.94,2.94,0,0,1,2.4-1,2.91,2.91,0,0,1,1.58.45,3.34,3.34,0,0,1,1.15,1.26l-.2,2a2.31,2.31,0,0,0-.22-1.06,1.61,1.61,0,0,0-.65-.67,2.18,2.18,0,0,0-1-.22,1.83,1.83,0,0,0-1.46.58,2.43,2.43,0,0,0-.52,1.66v2.11a2.35,2.35,0,0,0,.52,1.63,1.86,1.86,0,0,0,1.46.57,2.06,2.06,0,0,0,1-.24,1.58,1.58,0,0,0,.65-.68,2.39,2.39,0,0,0,.22-1.08l.13,2.05a2.83,2.83,0,0,1-.9,1.17A2.52,2.52,0,0,1,776.27,490.61Zm.17,3.77a4.36,4.36,0,0,1-2-.41,3.07,3.07,0,0,1-1.34-1.14l1.29-1.17a2.51,2.51,0,0,0,.89.8,2.33,2.33,0,0,0,1.09.28,2.3,2.3,0,0,0,1.69-.6,2.37,2.37,0,0,0,.59-1.71v-9.68h1.91v9.4a4.22,4.22,0,0,1-1.09,3.12A4.12,4.12,0,0,1,776.44,494.38Z" transform="translate(-151 -117.42)"/><path d="M786.69,476.86v13.58h-1.91v-11.5l-1.93,1.18v-2l1.93-1.29Z" transform="translate(-151 -117.42)"/><path d="M751.46,535.81V522.22h1.91v13.59Zm.83-5.75v-1.81h4.64a1.66,1.66,0,0,0,1.33-.58,2.55,2.55,0,0,0,0-3.06,1.66,1.66,0,0,0-1.33-.58h-4.64v-1.81h4.56a4.17,4.17,0,0,1,2.07.49,3.37,3.37,0,0,1,1.38,1.37,4.1,4.1,0,0,1,.49,2.06,4.16,4.16,0,0,1-.49,2.06,3.43,3.43,0,0,1-1.38,1.37,4.17,4.17,0,0,1-2.07.49Zm6.81,5.75L756,529.64l1.9-.43,3.47,6.6Z" transform="translate(-151 -117.42)"/><path d="M767.34,536a4.22,4.22,0,0,1-3.14-1.13,4.42,4.42,0,0,1-1.11-3.22v-1.09a4.85,4.85,0,0,1,1.07-3.35,3.85,3.85,0,0,1,3-1.19,3.31,3.31,0,0,1,2.83,1.35,6.17,6.17,0,0,1,1,3.77v.63h-6.54v-1.53h4.73a3.28,3.28,0,0,0-.62-1.84,1.71,1.71,0,0,0-1.41-.66,2.07,2.07,0,0,0-1.67.71,3,3,0,0,0-.6,2v1.23a2.51,2.51,0,0,0,.64,1.85,2.43,2.43,0,0,0,1.8.64,3,3,0,0,0,1.15-.23,3.07,3.07,0,0,0,1-.65l1.26,1.25a5.25,5.25,0,0,1-1.62,1.07A4.66,4.66,0,0,1,767.34,536Z" transform="translate(-151 -117.42)"/><path d="M776.7,536a3,3,0,0,1-2.48-1,4.34,4.34,0,0,1-.88-2.91v-2.14a4.43,4.43,0,0,1,.86-2.91,3.17,3.17,0,0,1,4-.59,3.34,3.34,0,0,1,1.15,1.26l-.2,2a2.26,2.26,0,0,0-.22-1,1.56,1.56,0,0,0-.65-.67,2.18,2.18,0,0,0-1-.23,1.84,1.84,0,0,0-1.46.59,2.38,2.38,0,0,0-.52,1.65V532a2.31,2.31,0,0,0,.52,1.63,1.87,1.87,0,0,0,1.46.58,2.06,2.06,0,0,0,1-.24,1.61,1.61,0,0,0,.65-.69,2.35,2.35,0,0,0,.22-1.07l.13,2a2.85,2.85,0,0,1-.9,1.18A2.57,2.57,0,0,1,776.7,536Zm.17,3.78a4.5,4.5,0,0,1-2-.41,3.07,3.07,0,0,1-1.34-1.14l1.29-1.17a2.49,2.49,0,0,0,.89.79,2.18,2.18,0,0,0,1.08.28,2.3,2.3,0,0,0,1.7-.6,2.34,2.34,0,0,0,.59-1.7v-9.69H781v9.41a4.25,4.25,0,0,1-1.09,3.12A4.12,4.12,0,0,1,776.87,539.75Z" transform="translate(-151 -117.42)"/><path d="M783.63,535.81v-1.66l4.74-6.31a4.68,4.68,0,0,0,.64-1.12,3,3,0,0,0,.23-1.09v0a1.64,1.64,0,0,0-.48-1.26,1.9,1.9,0,0,0-1.35-.45,1.84,1.84,0,0,0-1.34.49,2.18,2.18,0,0,0-.63,1.39h-2a4.44,4.44,0,0,1,1.28-2.73,3.7,3.7,0,0,1,2.64-1,4,4,0,0,1,2.83.92,3.42,3.42,0,0,1,1,2.62h0a4.17,4.17,0,0,1-.3,1.5,6.39,6.39,0,0,1-.83,1.51L786.16,534h5.13v1.82Z" transform="translate(-151 -117.42)"/><rect x="580.06" y="361.87" width="11.22" height="11.22"/><rect x="580.06" y="406.49" width="11.22" height="11.22"/><path d="M950.2,432.79a3.08,3.08,0,0,1-2.48-1,4.35,4.35,0,0,1-.87-2.9v-2.14a4.46,4.46,0,0,1,.86-2.92,2.92,2.92,0,0,1,2.4-1,2.87,2.87,0,0,1,1.57.45,3.22,3.22,0,0,1,1.16,1.26l-.2,2a2.31,2.31,0,0,0-.22-1.06,1.61,1.61,0,0,0-.65-.67,2.2,2.2,0,0,0-1-.22,1.87,1.87,0,0,0-1.47.58,2.48,2.48,0,0,0-.51,1.66v2.11a2.39,2.39,0,0,0,.51,1.63,1.9,1.9,0,0,0,1.47.57,2.09,2.09,0,0,0,1-.24,1.64,1.64,0,0,0,.65-.68,2.39,2.39,0,0,0,.22-1.08l.13,2.05a2.89,2.89,0,0,1-.9,1.17A2.6,2.6,0,0,1,950.2,432.79Zm2.44-.17V419h1.91v13.58Z" transform="translate(-151 -117.42)"/><path d="M960.54,432.76a4.11,4.11,0,0,1-2.67-.74,3.27,3.27,0,0,1-.08-4.42,3.62,3.62,0,0,1,2.45-.71H963l.13,1.53h-2.88a1.64,1.64,0,0,0-1.11.33,1.28,1.28,0,0,0-.37,1,1.24,1.24,0,0,0,.49,1.09,2.54,2.54,0,0,0,1.49.36,4.42,4.42,0,0,0,1.62-.23.77.77,0,0,0,.54-.73l.2,1.36a2.14,2.14,0,0,1-.63.64,2.63,2.63,0,0,1-.85.38A4,4,0,0,1,960.54,432.76Zm2.37-.14v-6.15a2.06,2.06,0,0,0-.51-1.48,1.91,1.91,0,0,0-1.44-.52,3.58,3.58,0,0,0-1.12.17,3.13,3.13,0,0,0-1,.5l-1.39-.95a3.63,3.63,0,0,1,1.45-1,5.35,5.35,0,0,1,2-.36,4,4,0,0,1,2.83.94,3.51,3.51,0,0,1,1,2.66v6.23Z" transform="translate(-151 -117.42)"/><path d="M966.87,424.64v-1.71h4.37v1.71Zm3.27,8a2.07,2.07,0,0,1-1.73-.67,2.93,2.93,0,0,1-.54-1.9v-10h1.91v10a.87.87,0,0,0,.14.54.47.47,0,0,0,.41.19h.91v1.82Z" transform="translate(-151 -117.42)"/><path d="M977,432.76a4.16,4.16,0,0,1-2.68-.74,2.77,2.77,0,0,1-.89-2.26,2.71,2.71,0,0,1,.82-2.16,3.6,3.6,0,0,1,2.45-.71h2.75l.13,1.53h-2.87a1.64,1.64,0,0,0-1.11.33,1.28,1.28,0,0,0-.38,1,1.25,1.25,0,0,0,.5,1.09,2.5,2.5,0,0,0,1.48.36,4.44,4.44,0,0,0,1.63-.23.77.77,0,0,0,.54-.73l.2,1.36a2.14,2.14,0,0,1-.63.64,2.63,2.63,0,0,1-.85.38A4.07,4.07,0,0,1,977,432.76Zm2.37-.14v-6.15a2.06,2.06,0,0,0-.51-1.48,1.91,1.91,0,0,0-1.44-.52,3.65,3.65,0,0,0-1.13.17,3.08,3.08,0,0,0-1,.5l-1.39-.95a3.56,3.56,0,0,1,1.45-1,5.35,5.35,0,0,1,2-.36,3.92,3.92,0,0,1,2.82.94,3.48,3.48,0,0,1,1,2.66v6.23Z" transform="translate(-151 -117.42)"/><path d="M987.22,419v13.58h-1.9V421.11l-1.94,1.19v-2l1.94-1.29Z" transform="translate(-151 -117.42)"/><rect x="844.84" y="304.05" width="11.22" height="11.22"/><path d="M946.57,469.11a3.06,3.06,0,0,1-2.48-1,4.34,4.34,0,0,1-.88-2.91V463a4.46,4.46,0,0,1,.86-2.92,2.94,2.94,0,0,1,2.4-1,2.91,2.91,0,0,1,1.58.45,3.34,3.34,0,0,1,1.15,1.26l-.2,2a2.33,2.33,0,0,0-.22-1.06,1.53,1.53,0,0,0-.65-.66,2.06,2.06,0,0,0-1-.23,1.81,1.81,0,0,0-1.46.59,2.38,2.38,0,0,0-.52,1.65v2.11a2.33,2.33,0,0,0,.52,1.63,1.86,1.86,0,0,0,1.46.57,2.18,2.18,0,0,0,1-.23,1.61,1.61,0,0,0,.65-.69,2.39,2.39,0,0,0,.22-1.08l.13,2.05a2.77,2.77,0,0,1-.9,1.17A2.52,2.52,0,0,1,946.57,469.11Zm2.43-.17V455.36h1.91v13.58Z" transform="translate(-151 -117.42)"/><path d="M956.9,469.08a4.05,4.05,0,0,1-2.67-.74,3.3,3.3,0,0,1-.08-4.42,3.7,3.7,0,0,1,2.46-.71h2.75l.13,1.53h-2.88a1.64,1.64,0,0,0-1.11.33,1.28,1.28,0,0,0-.37,1,1.26,1.26,0,0,0,.49,1.1,2.62,2.62,0,0,0,1.49.35,4.42,4.42,0,0,0,1.62-.23.77.77,0,0,0,.55-.73l.19,1.36a2.26,2.26,0,0,1-.62.65,2.92,2.92,0,0,1-.86.38A4.49,4.49,0,0,1,956.9,469.08Zm2.38-.14V462.8a2,2,0,0,0-.51-1.48,1.93,1.93,0,0,0-1.45-.53,3.9,3.9,0,0,0-1.12.17,3.47,3.47,0,0,0-1,.5l-1.39-.95a3.58,3.58,0,0,1,1.46-1,5.13,5.13,0,0,1,2-.37,4,4,0,0,1,2.82.94,3.51,3.51,0,0,1,1,2.66v6.23Z" transform="translate(-151 -117.42)"/><path d="M963.24,461v-1.72h4.37V461Zm3.26,8a2.11,2.11,0,0,1-1.73-.66,3,3,0,0,1-.54-1.91v-10h1.91v10a.94.94,0,0,0,.14.54.47.47,0,0,0,.41.2h.92V469Z" transform="translate(-151 -117.42)"/><path d="M973.32,469.08a4.05,4.05,0,0,1-2.67-.74,3.27,3.27,0,0,1-.08-4.42,3.67,3.67,0,0,1,2.45-.71h2.76l.13,1.53H973a1.64,1.64,0,0,0-1.11.33,1.28,1.28,0,0,0-.37,1,1.26,1.26,0,0,0,.49,1.1,2.62,2.62,0,0,0,1.49.35,4.42,4.42,0,0,0,1.62-.23.77.77,0,0,0,.54-.73l.2,1.36a2.3,2.3,0,0,1-.63.65,2.86,2.86,0,0,1-.85.38A4.49,4.49,0,0,1,973.32,469.08Zm2.37-.14V462.8a2,2,0,0,0-.51-1.48,1.92,1.92,0,0,0-1.44-.53,3.9,3.9,0,0,0-1.12.17,3.35,3.35,0,0,0-1,.5l-1.39-.95a3.61,3.61,0,0,1,1.45-1,5.18,5.18,0,0,1,2-.37,4,4,0,0,1,2.82.94,3.51,3.51,0,0,1,1,2.66v6.23Z" transform="translate(-151 -117.42)"/><path d="M980.1,468.94v-1.65l4.73-6.31a5.15,5.15,0,0,0,.65-1.12,3.07,3.07,0,0,0,.22-1.1v0a1.67,1.67,0,0,0-.47-1.26,2,2,0,0,0-1.36-.44,1.88,1.88,0,0,0-1.34.49,2.23,2.23,0,0,0-.63,1.38h-2a4.49,4.49,0,0,1,1.28-2.72,3.74,3.74,0,0,1,2.64-1,4,4,0,0,1,2.83.93,3.36,3.36,0,0,1,1,2.61h0a4.27,4.27,0,0,1-.3,1.51,5.75,5.75,0,0,1-.83,1.51l-3.93,5.34h5.14v1.81Z" transform="translate(-151 -117.42)"/><rect x="845.26" y="340.37" width="11.22" height="11.22"/><path d="M754.62,580l2.78-10.65h1.31L761.49,580l2.4-10.65h2l-3.31,13.58h-1.95l-2.5-9.49-2.61,9.49h-2l-3.31-13.58h2Z" transform="translate(-151 -117.42)"/><path d="M767.18,582.94v-9.69h1.9v9.69Zm5.33-7.4a1.61,1.61,0,0,0-.63-.46,2.28,2.28,0,0,0-.89-.16,1.93,1.93,0,0,0-1.41.5,1.88,1.88,0,0,0-.5,1.39l-.19-1.87a3.55,3.55,0,0,1,1.15-1.35,2.77,2.77,0,0,1,1.57-.48,3.44,3.44,0,0,1,1.2.19,2.86,2.86,0,0,1,.94.56Z" transform="translate(-151 -117.42)"/><path d="M775.34,571.27v-1.91h1.91v1.91Zm0,11.67v-9.69h1.91v9.69Z" transform="translate(-151 -117.42)"/><path d="M779.39,575v-1.72h4.37V575Zm3.27,8a2.1,2.1,0,0,1-1.73-.66,3,3,0,0,1-.54-1.91v-10h1.91v10a.87.87,0,0,0,.14.54.47.47,0,0,0,.41.2h.91V583Z" transform="translate(-151 -117.42)"/><path d="M790.35,583.08a4.18,4.18,0,0,1-3.14-1.13,4.38,4.38,0,0,1-1.11-3.21v-1.09a4.81,4.81,0,0,1,1.07-3.36,3.83,3.83,0,0,1,3-1.18,3.34,3.34,0,0,1,2.83,1.34,6.22,6.22,0,0,1,1,3.78v.63h-6.54v-1.53h4.73a3.22,3.22,0,0,0-.62-1.84,1.71,1.71,0,0,0-1.41-.66,2,2,0,0,0-1.67.71,3,3,0,0,0-.6,2v1.24a2.51,2.51,0,0,0,.64,1.85,2.46,2.46,0,0,0,1.8.64,3.14,3.14,0,0,0,1.15-.23,3.39,3.39,0,0,0,1-.66l1.25,1.25a5.09,5.09,0,0,1-1.61,1.07A4.48,4.48,0,0,1,790.35,583.08Z" transform="translate(-151 -117.42)"/><path d="M796.82,582.94V569.35h1.9v13.59Zm.83-5.74v-1.81h4.63a1.72,1.72,0,0,0,1.34-.58,2.61,2.61,0,0,0,0-3.07,1.72,1.72,0,0,0-1.34-.57h-4.63v-1.82h4.56a4.28,4.28,0,0,1,2.07.49,3.56,3.56,0,0,1,1.38,1.37,4.28,4.28,0,0,1,.49,2.07,4.1,4.1,0,0,1-.5,2.05,3.52,3.52,0,0,1-1.38,1.38,4.1,4.1,0,0,1-2.06.49Zm6.81,5.74-3.11-6.16,1.89-.43,3.48,6.59Z" transform="translate(-151 -117.42)"/><path d="M812.69,583.08a4.16,4.16,0,0,1-3.13-1.13,4.38,4.38,0,0,1-1.12-3.21v-1.09a4.86,4.86,0,0,1,1.07-3.36,3.87,3.87,0,0,1,3-1.18,3.34,3.34,0,0,1,2.83,1.34,6.22,6.22,0,0,1,1,3.78v.63h-6.53v-1.53h4.72a3.22,3.22,0,0,0-.61-1.84,1.71,1.71,0,0,0-1.41-.66,2.06,2.06,0,0,0-1.68.71,3.06,3.06,0,0,0-.59,2v1.24a2.51,2.51,0,0,0,.64,1.85,2.43,2.43,0,0,0,1.79.64,3.1,3.1,0,0,0,1.15-.23,3.44,3.44,0,0,0,1-.66l1.25,1.25a5.33,5.33,0,0,1-1.61,1.07A4.49,4.49,0,0,1,812.69,583.08Z" transform="translate(-151 -117.42)"/><path d="M822.05,583.11a3.06,3.06,0,0,1-2.48-1,4.39,4.39,0,0,1-.87-2.91V577a4.46,4.46,0,0,1,.85-2.92,2.94,2.94,0,0,1,2.41-1,2.9,2.9,0,0,1,1.57.45,3.27,3.27,0,0,1,1.15,1.26l-.19,2a2.33,2.33,0,0,0-.23-1.06,1.51,1.51,0,0,0-.64-.66,2.1,2.1,0,0,0-1-.23,1.82,1.82,0,0,0-1.46.59,2.43,2.43,0,0,0-.52,1.65v2.11a2.38,2.38,0,0,0,.52,1.63,1.88,1.88,0,0,0,1.46.57,2.1,2.1,0,0,0,1-.24,1.51,1.51,0,0,0,.64-.68,2.39,2.39,0,0,0,.23-1.08l.13,2a2.94,2.94,0,0,1-.9,1.17A2.55,2.55,0,0,1,822.05,583.11Zm.18,3.77a4.58,4.58,0,0,1-2-.4,3.21,3.21,0,0,1-1.34-1.15l1.29-1.16a2.78,2.78,0,0,0,.89.79,2.24,2.24,0,0,0,1.09.28,2.28,2.28,0,0,0,1.69-.6,2.33,2.33,0,0,0,.6-1.71v-9.68h1.9v9.4a4.3,4.3,0,0,1-1.08,3.13A4.17,4.17,0,0,1,822.23,586.88Z" transform="translate(-151 -117.42)"/><rect x="580.23" y="453.63" width="11.22" height="11.22"/><path d="M755,627l2.78-10.65h1.31L761.84,627l2.4-10.65h2l-3.31,13.58H761l-2.5-9.49-2.61,9.49h-2l-3.31-13.58h2Z" transform="translate(-151 -117.42)"/><path d="M767.53,629.94v-9.69h1.9v9.69Zm5.33-7.39a1.63,1.63,0,0,0-.63-.47,2.28,2.28,0,0,0-.89-.16,1.93,1.93,0,0,0-1.41.5,1.89,1.89,0,0,0-.5,1.39l-.19-1.87a3.55,3.55,0,0,1,1.15-1.35,2.77,2.77,0,0,1,1.57-.48,3.44,3.44,0,0,1,1.2.19,2.73,2.73,0,0,1,.94.57Z" transform="translate(-151 -117.42)"/><path d="M775.69,618.27v-1.91h1.91v1.91Zm0,11.67v-9.69h1.91v9.69Z" transform="translate(-151 -117.42)"/><path d="M779.74,622v-1.72h4.37V622Zm3.27,8a2.1,2.1,0,0,1-1.73-.66,3,3,0,0,1-.54-1.91v-10h1.91v10a.87.87,0,0,0,.14.54.47.47,0,0,0,.41.2h.91V630Z" transform="translate(-151 -117.42)"/><path d="M790.7,630.08a4.18,4.18,0,0,1-3.14-1.13,4.38,4.38,0,0,1-1.11-3.21v-1.09a4.83,4.83,0,0,1,1.07-3.36,3.83,3.83,0,0,1,3-1.18,3.34,3.34,0,0,1,2.83,1.34,6.22,6.22,0,0,1,1,3.78v.63h-6.54v-1.53h4.73a3.25,3.25,0,0,0-.62-1.84,1.71,1.71,0,0,0-1.41-.66,2,2,0,0,0-1.67.71,3,3,0,0,0-.6,2v1.24a2.51,2.51,0,0,0,.64,1.85,2.42,2.42,0,0,0,1.8.64,3.14,3.14,0,0,0,1.15-.23,3.39,3.39,0,0,0,1-.66l1.25,1.25a4.93,4.93,0,0,1-1.61,1.07A4.48,4.48,0,0,1,790.7,630.08Z" transform="translate(-151 -117.42)"/><path d="M797.17,629.94V616.36h1.9v13.58Zm1.29,0v-1.81h3.07a3.26,3.26,0,0,0,2.33-.78,2.88,2.88,0,0,0,.83-2.2v-4a2.88,2.88,0,0,0-.83-2.2,3.26,3.26,0,0,0-2.33-.78h-3.07v-1.82h3a5.34,5.34,0,0,1,3.82,1.28,4.7,4.7,0,0,1,1.35,3.59v3.85a5.3,5.3,0,0,1-.61,2.63,4,4,0,0,1-1.76,1.66,6.34,6.34,0,0,1-2.81.57Z" transform="translate(-151 -117.42)"/><path d="M812.63,630.08a4.05,4.05,0,0,1-2.67-.74,3.3,3.3,0,0,1-.08-4.42,3.67,3.67,0,0,1,2.45-.71h2.76l.13,1.53h-2.88a1.64,1.64,0,0,0-1.11.33,1.28,1.28,0,0,0-.37,1,1.26,1.26,0,0,0,.49,1.1,2.62,2.62,0,0,0,1.49.35,4.42,4.42,0,0,0,1.62-.23.77.77,0,0,0,.54-.73l.2,1.36a2.27,2.27,0,0,1-.62.65,2.92,2.92,0,0,1-.86.38A4.49,4.49,0,0,1,812.63,630.08Zm2.37-.14V623.8a2,2,0,0,0-.5-1.48,1.93,1.93,0,0,0-1.45-.53,3.9,3.9,0,0,0-1.12.17,3.47,3.47,0,0,0-1,.5l-1.39-1a3.61,3.61,0,0,1,1.45-1,5.18,5.18,0,0,1,2-.37,4,4,0,0,1,2.82.94,3.51,3.51,0,0,1,1,2.66v6.23Z" transform="translate(-151 -117.42)"/><path d="M819,622v-1.72h4.37V622Zm3.27,8a2.11,2.11,0,0,1-1.73-.66,3,3,0,0,1-.54-1.91v-10h1.91v10a.94.94,0,0,0,.14.54.47.47,0,0,0,.41.2h.91V630Z" transform="translate(-151 -117.42)"/><path d="M829.05,630.08a4.1,4.1,0,0,1-2.68-.74,2.77,2.77,0,0,1-.89-2.26,2.71,2.71,0,0,1,.82-2.16,3.66,3.66,0,0,1,2.45-.71h2.76l.13,1.53h-2.88a1.64,1.64,0,0,0-1.11.33,1.28,1.28,0,0,0-.37,1,1.26,1.26,0,0,0,.49,1.1,2.62,2.62,0,0,0,1.49.35,4.42,4.42,0,0,0,1.62-.23.77.77,0,0,0,.54-.73l.2,1.36a2.17,2.17,0,0,1-.63.65,2.86,2.86,0,0,1-.85.38A4.55,4.55,0,0,1,829.05,630.08Zm2.37-.14V623.8a2,2,0,0,0-.51-1.48,1.92,1.92,0,0,0-1.44-.53,3.9,3.9,0,0,0-1.12.17,3.24,3.24,0,0,0-1,.5l-1.39-1a3.61,3.61,0,0,1,1.45-1,5.16,5.16,0,0,1,2-.37,3.92,3.92,0,0,1,2.82.94,3.48,3.48,0,0,1,1,2.66v6.23Z" transform="translate(-151 -117.42)"/><rect x="580.58" y="500.63" width="11.22" height="11.22"/><path d="M371,125.66V342.55H256.72V125.66H371m3-3H253.72V345.55H374V122.66Z" transform="translate(-151 -117.42)"/><path d="M301.6,267.91V251.34h3.12v16.57Zm1.43-6.43v-3h5.29a1.77,1.77,0,0,0,1.37-.57,2.08,2.08,0,0,0,.53-1.48,2.14,2.14,0,0,0-.52-1.51,1.79,1.79,0,0,0-1.38-.57H303v-3h5.22A5.54,5.54,0,0,1,311,252a4.5,4.5,0,0,1,1.82,1.77,5.81,5.81,0,0,1,0,5.34,4.5,4.5,0,0,1-1.82,1.77,5.79,5.79,0,0,1-2.73.62Z" transform="translate(-151 -117.42)"/><path d="M321.55,268.08a6.74,6.74,0,0,1-3.24-.72,4.89,4.89,0,0,1-2-2.11,7.18,7.18,0,0,1-.71-3.35v-4.54a7.18,7.18,0,0,1,.71-3.35,4.89,4.89,0,0,1,2-2.11,6.74,6.74,0,0,1,3.24-.73,5.72,5.72,0,0,1,2.8.68,5.45,5.45,0,0,1,2,1.94,8.61,8.61,0,0,1,1.11,3.1h-3.24a4.29,4.29,0,0,0-.56-1.41,2.85,2.85,0,0,0-.92-.88,2.51,2.51,0,0,0-1.22-.31,2.58,2.58,0,0,0-2,.81,3.27,3.27,0,0,0-.73,2.26v4.54a3.25,3.25,0,0,0,.73,2.26,2.61,2.61,0,0,0,2,.8,2.4,2.4,0,0,0,1.73-.68,3.58,3.58,0,0,0,1-1.92h3.24a8.75,8.75,0,0,1-1.12,3.09,5.51,5.51,0,0,1-2,2A5.65,5.65,0,0,1,321.55,268.08Z" transform="translate(-151 -117.42)"/><path d="M283.53,150.58l2.78-10.64h1.31l2.78,10.64,2.4-10.64h2l-3.31,13.58h-2L287,144l-2.61,9.49h-2l-3.31-13.58h2Z" transform="translate(-151 -117.42)"/><path d="M296.09,153.52v-9.7H298v9.7Zm5.33-7.4a1.74,1.74,0,0,0-.63-.47,2.44,2.44,0,0,0-.89-.15,1.72,1.72,0,0,0-1.91,1.88l-.19-1.87a3.52,3.52,0,0,1,1.15-1.34,2.78,2.78,0,0,1,1.57-.49,3.43,3.43,0,0,1,1.2.2,2.48,2.48,0,0,1,.94.56Z" transform="translate(-151 -117.42)"/><path d="M304.25,141.84v-1.9h1.91v1.9Zm0,11.68v-9.7h1.91v9.7Z" transform="translate(-151 -117.42)"/><path d="M308.3,145.54v-1.72h4.37v1.72Zm3.27,8a2.1,2.1,0,0,1-1.73-.66,3,3,0,0,1-.54-1.9V141h1.91v10a.9.9,0,0,0,.14.55.47.47,0,0,0,.41.19h.91v1.81Z" transform="translate(-151 -117.42)"/><path d="M319.26,153.66a4.22,4.22,0,0,1-3.14-1.13,4.42,4.42,0,0,1-1.11-3.22v-1.09a4.8,4.8,0,0,1,1.07-3.35,3.84,3.84,0,0,1,3-1.19,3.32,3.32,0,0,1,2.83,1.35,6.19,6.19,0,0,1,1,3.77v.64h-6.54V147.9h4.73a3.28,3.28,0,0,0-.62-1.84,1.71,1.71,0,0,0-1.41-.66,2.07,2.07,0,0,0-1.67.71,3,3,0,0,0-.6,2v1.23a2.51,2.51,0,0,0,.64,1.85,2.44,2.44,0,0,0,1.8.65,3,3,0,0,0,1.15-.24,3.07,3.07,0,0,0,1-.65l1.26,1.25a5.25,5.25,0,0,1-1.62,1.07A4.66,4.66,0,0,1,319.26,153.66Z" transform="translate(-151 -117.42)"/><path d="M325.73,153.52V139.94h1.9v13.58Zm1-5.27v-1.81h4.34a1.91,1.91,0,0,0,1.5-.65,2.81,2.81,0,0,0,0-3.39,1.91,1.91,0,0,0-1.5-.65h-4.34v-1.81H331a4.21,4.21,0,0,1,2.14.52,3.63,3.63,0,0,1,1.43,1.45,5,5,0,0,1,0,4.38,3.69,3.69,0,0,1-1.43,1.45,4.32,4.32,0,0,1-2.14.51Z" transform="translate(-151 -117.42)"/><path d="M341.89,153.66a4.79,4.79,0,0,1-2.48-.63,4.28,4.28,0,0,1-1.65-1.77,5.64,5.64,0,0,1-.59-2.66v-3.73a5.65,5.65,0,0,1,.59-2.67,4.28,4.28,0,0,1,1.65-1.77,4.79,4.79,0,0,1,2.48-.63,4.55,4.55,0,0,1,3.79,1.91,5.17,5.17,0,0,1,.89,2.12h-1.95a3.1,3.1,0,0,0-.59-1.14,2.88,2.88,0,0,0-1-.76,2.63,2.63,0,0,0-1.16-.27,2.52,2.52,0,0,0-2,.88,3.42,3.42,0,0,0-.76,2.33v3.73a3.4,3.4,0,0,0,.76,2.32,2.52,2.52,0,0,0,2,.88,2.87,2.87,0,0,0,1.68-.56,2.76,2.76,0,0,0,1.05-1.62h1.95a5.12,5.12,0,0,1-.89,2.12,4.61,4.61,0,0,1-1.64,1.41A4.55,4.55,0,0,1,341.89,153.66Z" transform="translate(-151 -117.42)"/><rect x="156.9" width="11.22" height="11.22"/><path d="M298.21,213.08V199.51h1.73l6.64,10.5-.23.24V199.51h1.89v13.57h-1.75l-6.62-10.34.23-.24v10.58Z" transform="translate(-151 -117.42)"/><path d="M315.38,213.23a4.2,4.2,0,0,1-3.13-1.13,4.37,4.37,0,0,1-1.12-3.21v-1.1a4.85,4.85,0,0,1,1.07-3.35,3.86,3.86,0,0,1,3-1.19,3.32,3.32,0,0,1,2.84,1.35,6.19,6.19,0,0,1,1,3.77V209h-6.53v-1.53h4.72a3.22,3.22,0,0,0-.61-1.84,1.7,1.7,0,0,0-1.42-.67,2.08,2.08,0,0,0-1.67.71,3,3,0,0,0-.59,2v1.23a2.49,2.49,0,0,0,.64,1.85,2.4,2.4,0,0,0,1.79.65,2.93,2.93,0,0,0,1.15-.24,3.22,3.22,0,0,0,1-.65l1.25,1.25a5.33,5.33,0,0,1-1.61,1.07A4.67,4.67,0,0,1,315.38,213.23Z" transform="translate(-151 -117.42)"/><path d="M323.44,213.09l-3-9.7h2l1.72,6.92,2.42-6.92h1.33l2.41,6.92,1.72-6.92h2l-3,9.7h-1.43l-2.37-6.7-2.36,6.7Z" transform="translate(-151 -117.42)"/><path d="M336.27,213.09V199.51h1.91v13.58Zm1-5.27V206h4.35a1.87,1.87,0,0,0,1.49-.65,2.43,2.43,0,0,0,.57-1.69,2.46,2.46,0,0,0-.57-1.7,1.87,1.87,0,0,0-1.49-.65h-4.35v-1.81h4.28a4.25,4.25,0,0,1,2.15.52,3.6,3.6,0,0,1,1.42,1.45,5,5,0,0,1,0,4.38,3.67,3.67,0,0,1-1.42,1.45,4.35,4.35,0,0,1-2.15.51Z" transform="translate(-151 -117.42)"/><path d="M352.44,213.23a4.8,4.8,0,0,1-2.49-.63,4.28,4.28,0,0,1-1.65-1.77,5.76,5.76,0,0,1-.59-2.66v-3.73a5.77,5.77,0,0,1,.59-2.67A4.28,4.28,0,0,1,350,200a4.8,4.8,0,0,1,2.49-.63,4.69,4.69,0,0,1,2.15.5,4.61,4.61,0,0,1,1.63,1.41,5.32,5.32,0,0,1,.9,2.12h-1.95a3,3,0,0,0-1.57-1.9,2.66,2.66,0,0,0-1.16-.27,2.5,2.5,0,0,0-2,.88,3.45,3.45,0,0,0-.77,2.33v3.73a3.4,3.4,0,0,0,.77,2.32,2.5,2.5,0,0,0,2,.88,2.84,2.84,0,0,0,1.67-.56,2.79,2.79,0,0,0,1.06-1.62h1.95a5.26,5.26,0,0,1-.9,2.12,4.59,4.59,0,0,1-3.78,1.92Z" transform="translate(-151 -117.42)"/><rect x="215.24" y="84.52" width="11.22" height="11.22"/><path d="M290.49,325.27V311.69h1.91v13.58Zm1-5.27v-1.81h4.34a1.91,1.91,0,0,0,1.5-.65,2.5,2.5,0,0,0,.56-1.69,2.53,2.53,0,0,0-.56-1.71,1.9,1.9,0,0,0-1.5-.64h-4.34v-1.81h4.27a4.25,4.25,0,0,1,2.15.52,3.6,3.6,0,0,1,1.42,1.45,5,5,0,0,1,0,4.38,3.67,3.67,0,0,1-1.42,1.45,4.35,4.35,0,0,1-2.15.51Z" transform="translate(-151 -117.42)"/><path d="M306.66,325.41a4.74,4.74,0,0,1-2.48-.63,4.3,4.3,0,0,1-1.66-1.77,5.76,5.76,0,0,1-.59-2.66v-3.73a5.77,5.77,0,0,1,.59-2.67,4.3,4.3,0,0,1,1.66-1.77,4.75,4.75,0,0,1,6.27,1.28,5.46,5.46,0,0,1,.89,2.12h-1.95a3,3,0,0,0-.6-1.14,2.85,2.85,0,0,0-1-.76,2.66,2.66,0,0,0-1.16-.27,2.5,2.5,0,0,0-2,.88,3.42,3.42,0,0,0-.76,2.33v3.73a3.41,3.41,0,0,0,.76,2.32,2.5,2.5,0,0,0,2,.88,2.84,2.84,0,0,0,1.67-.56,2.77,2.77,0,0,0,1.06-1.62h1.95a5.26,5.26,0,0,1-.9,2.12,4.59,4.59,0,0,1-3.78,1.92Z" transform="translate(-151 -117.42)"/><path d="M318.16,325.41a5,5,0,0,1-2.51-.62A4.27,4.27,0,0,1,314,323a5.52,5.52,0,0,1-.6-2.63v-3.85a5.49,5.49,0,0,1,.6-2.63,4.25,4.25,0,0,1,1.66-1.75,5.41,5.41,0,0,1,5,0,4.25,4.25,0,0,1,1.66,1.75,5.49,5.49,0,0,1,.6,2.63v3.85a5.52,5.52,0,0,1-.6,2.63,4.27,4.27,0,0,1-1.66,1.76A5,5,0,0,1,318.16,325.41Zm0-1.88a2.63,2.63,0,0,0,2-.84,3.13,3.13,0,0,0,.77-2.22v-4a3.14,3.14,0,0,0-.77-2.23,2.93,2.93,0,0,0-4.09,0,3.14,3.14,0,0,0-.78,2.23v4a3.13,3.13,0,0,0,.78,2.22A2.65,2.65,0,0,0,318.16,323.53Z" transform="translate(-151 -117.42)"/><path d="M327.74,315.57v5.9a2.25,2.25,0,0,0,.51,1.57,1.92,1.92,0,0,0,1.47.55,2,2,0,0,0,1.45-.49,1.91,1.91,0,0,0,.51-1.41l.13,2a3,3,0,0,1-.92,1.17,2.68,2.68,0,0,1-1.71.52,3.08,3.08,0,0,1-2.48-1,4.35,4.35,0,0,1-.87-2.9v-5.9Zm3.94,9.7v-9.7h1.89v9.7Z" transform="translate(-151 -117.42)"/><path d="M335.72,317.29v-1.72h4.37v1.72Zm3.27,8a2.09,2.09,0,0,1-1.73-.66,3,3,0,0,1-.54-1.91v-10h1.91v10a.92.92,0,0,0,.14.55.47.47,0,0,0,.41.19h.91v1.81Z" transform="translate(-151 -117.42)"/><rect x="157.02" y="221.7" width="11.22" height="11.22"/><line class="cls-1" x1="518.5" y1="59.08" x2="519" y2="118.58"/><line class="cls-1" x1="425.5" y1="19.58" x2="425.5" y2="70.58"/><line class="cls-1" x1="425.5" y1="106.58" x2="425.5" y2="157.58"/><line class="cls-1" x1="425.5" y1="71.08" x2="462.5" y2="89.08"/><line class="cls-1" x1="425.5" y1="107.08" x2="462.5" y2="89.08"/><line class="cls-1" x1="425.5" y1="158.08" x2="518.5" y2="119.08"/><line class="cls-1" x1="425.5" y1="20.08" x2="518.5" y2="59.08"/><rect class="cls-2" x="424.5" y="154.08" width="2" height="5" rx="1"/><rect class="cls-2" x="424.5" y="106.08" width="2" height="5" rx="1"/><rect class="cls-2" x="461.5" y="88.08" width="2" height="2" rx="1"/><rect class="cls-2" x="424.5" y="69.08" width="2" height="3" rx="1"/><rect class="cls-2" x="424.5" y="19.08" width="2" height="5" rx="1"/><rect x="669.15" y="234.76" width="2" height="3.26" rx="1" transform="translate(104.6 -458.2) rotate(34.88)"/><rect class="cls-2" x="668.29" y="175.8" width="2.21" height="1.71" rx="0.85" transform="translate(-173.84 48.97) rotate(-13.93)"/><rect x="668.61" y="175.04" width="2" height="2.18" rx="1" transform="translate(-164.07 -56.85) rotate(-5.13)"/><path d="M623.64,214.41,630,197.85h2l6.33,16.56h-3.36l-4-11.31-4,11.31Zm3-2.65v-3h8.72v3Z" transform="translate(-151 -117.42)"/><path d="M643.75,214.58a3.49,3.49,0,0,1-2.94-1.34,6,6,0,0,1-1-3.77v-1.89a6.14,6.14,0,0,1,1-3.81,3.5,3.5,0,0,1,2.94-1.35,2.83,2.83,0,0,1,1.72.56,4,4,0,0,1,1.26,1.6l-.24,2.62a2.41,2.41,0,0,0-.2-1,1.46,1.46,0,0,0-.6-.65,1.88,1.88,0,0,0-1-.22,1.64,1.64,0,0,0-1.36.6,2.57,2.57,0,0,0-.49,1.68v1.88a2.47,2.47,0,0,0,.49,1.64,1.65,1.65,0,0,0,1.36.58,1.88,1.88,0,0,0,1-.22,1.44,1.44,0,0,0,.6-.62,2.35,2.35,0,0,0,.2-1l.16,2.7a2.94,2.94,0,0,1-2.9,2Zm2.74-.17V197.85h3.12v16.56Z" transform="translate(-151 -117.42)"/><path d="M656.32,214.58a3.47,3.47,0,0,1-2.93-1.34,6,6,0,0,1-1-3.77v-1.89a6.08,6.08,0,0,1,1-3.81,3.48,3.48,0,0,1,2.93-1.35,2.86,2.86,0,0,1,1.73.56,4,4,0,0,1,1.26,1.6l-.24,2.62a2.26,2.26,0,0,0-.21-1,1.36,1.36,0,0,0-.6-.65,1.86,1.86,0,0,0-1-.22,1.65,1.65,0,0,0-1.36.6,2.62,2.62,0,0,0-.48,1.68v1.88a2.52,2.52,0,0,0,.48,1.64,1.67,1.67,0,0,0,1.36.58,1.86,1.86,0,0,0,1-.22,1.33,1.33,0,0,0,.6-.62,2.2,2.2,0,0,0,.21-1l.16,2.7a3.06,3.06,0,0,1-1.11,1.5A3,3,0,0,1,656.32,214.58Zm2.75-.17V197.85h3.12v16.56Z" transform="translate(-151 -117.42)"/><line class="cls-1" x1="1158.71" y1="307.47" x2="1159.28" y2="380.72"/><line class="cls-1" x1="1052.51" y1="258.84" x2="1052.51" y2="321.63"/><line class="cls-1" x1="1052.51" y1="365.95" x2="1052.51" y2="428.73"/><line class="cls-1" x1="1052.51" y1="322.24" x2="1094.76" y2="344.4"/><line class="cls-1" x1="1052.51" y1="366.56" x2="1094.76" y2="344.4"/><line class="cls-1" x1="1052.51" y1="429.35" x2="1158.71" y2="381.34"/><line class="cls-1" x1="1052.51" y1="259.46" x2="1158.71" y2="307.47"/><rect class="cls-2" x="1051.37" y="424.42" width="2.28" height="6.16" rx="1"/><rect class="cls-2" x="1051.37" y="365.33" width="2.28" height="6.16" rx="1"/><rect class="cls-2" x="1093.62" y="343.17" width="2.28" height="2.46" rx="1"/><rect class="cls-2" x="1051.37" y="319.78" width="2.28" height="3.69" rx="1"/><rect class="cls-2" x="1051.37" y="258.23" width="2.28" height="6.16" rx="1"/><path d="M1309.38,500.27h0a1.3,1.3,0,0,1-.28-1.71l.82-1.27a1.09,1.09,0,0,1,1.59-.31h0a1.28,1.28,0,0,1,.28,1.71L1311,500A1.09,1.09,0,0,1,1309.38,500.27Z" transform="translate(-151 -117.42)"/><path class="cls-2" d="M1310.1,426l-.56.15a1,1,0,0,1-1.18-.76h0a1.06,1.06,0,0,1,.72-1.28l.55-.15a1,1,0,0,1,1.19.77h0A1.06,1.06,0,0,1,1310.1,426Z" transform="translate(-151 -117.42)"/><path d="M1309.94,425.77h0a1.17,1.17,0,0,1-1.24-1.11l0-.23a1.21,1.21,0,0,1,1-1.33h0a1.18,1.18,0,0,1,1.24,1.11v.23A1.2,1.2,0,0,1,1309.94,425.77Z" transform="translate(-151 -117.42)"/><path d="M1213.51,429.56l6.33-16.56h2l6.33,16.56h-3.36l-4-11.31-4,11.31Zm3-2.66v-3h8.72v3Z" transform="translate(-151 -117.42)"/><path d="M1230.21,429.56V413h3.12v16.56Zm1.39,0v-3h9.71v3Z" transform="translate(-151 -117.42)"/><path d="M1248.94,429.73a6,6,0,0,1-4.46-1.61,6.25,6.25,0,0,1-1.58-4.55V413H1246v10.65a3,3,0,0,0,.77,2.21,2.85,2.85,0,0,0,2.15.78,2.91,2.91,0,0,0,2.17-.78,3,3,0,0,0,.77-2.21V413H1255v10.57a6.25,6.25,0,0,1-1.58,4.55A6,6,0,0,1,1248.94,429.73Z" transform="translate(-151 -117.42)"/><path d="M1272.43,444.19v1.64L1266.52,456h6.1v1.82h-8.44v-1.65l6-10.12h-5.79v-1.81Z" transform="translate(-151 -117.42)"/><path d="M1278.92,457.9a4.18,4.18,0,0,1-3.14-1.13,4.38,4.38,0,0,1-1.11-3.21v-1.09a4.85,4.85,0,0,1,1.07-3.35,3.86,3.86,0,0,1,3-1.19,3.34,3.34,0,0,1,2.84,1.35,6.17,6.17,0,0,1,1,3.77v.63h-6.54v-1.53h4.73a3.35,3.35,0,0,0-.61-1.84,1.73,1.73,0,0,0-1.42-.66,2.08,2.08,0,0,0-1.67.71,3,3,0,0,0-.6,2v1.23a2.55,2.55,0,0,0,.64,1.85,2.43,2.43,0,0,0,1.8.64,2.92,2.92,0,0,0,1.15-.23,3.41,3.41,0,0,0,1-.65l1.25,1.25a5.44,5.44,0,0,1-1.62,1.07A4.57,4.57,0,0,1,1278.92,457.9Z" transform="translate(-151 -117.42)"/><path d="M1285.21,457.77v-9.7h1.9v9.7Zm5.33-7.4a1.59,1.59,0,0,0-.64-.47,2.38,2.38,0,0,0-.88-.16,1.74,1.74,0,0,0-1.91,1.89l-.19-1.87a3.44,3.44,0,0,1,1.15-1.34,2.68,2.68,0,0,1,1.57-.49,3.77,3.77,0,0,1,1.2.19,2.73,2.73,0,0,1,.94.57Z" transform="translate(-151 -117.42)"/><path d="M1296.9,457.9a3.84,3.84,0,0,1-3-1.1,4.36,4.36,0,0,1-1-3.12v-1.57a4.28,4.28,0,0,1,1-3.09,4.54,4.54,0,0,1,5.9,0,4.28,4.28,0,0,1,1,3.09v1.6a4.31,4.31,0,0,1-1,3.1A3.89,3.89,0,0,1,1296.9,457.9Zm0-1.81a1.92,1.92,0,0,0,1.54-.62,2.56,2.56,0,0,0,.55-1.76v-1.6a2.52,2.52,0,0,0-.55-1.75,2.22,2.22,0,0,0-3.08,0,2.52,2.52,0,0,0-.55,1.75v1.6a2.56,2.56,0,0,0,.55,1.76A1.92,1.92,0,0,0,1296.9,456.09Z" transform="translate(-151 -117.42)"/><path d="M1249.75,480.77V467.18h1.91v13.59Zm.83-5.75v-1.81h4.64a1.66,1.66,0,0,0,1.33-.58,2.55,2.55,0,0,0,0-3.06,1.66,1.66,0,0,0-1.33-.58h-4.64v-1.81h4.56a4.24,4.24,0,0,1,2.08.49,3.41,3.41,0,0,1,1.37,1.37,4.1,4.1,0,0,1,.49,2.06,4.16,4.16,0,0,1-.49,2.06,3.43,3.43,0,0,1-1.38,1.37,4.17,4.17,0,0,1-2.07.49Zm6.81,5.75-3.11-6.17,1.9-.43,3.47,6.6Z" transform="translate(-151 -117.42)"/><path d="M1265.63,480.91a4.22,4.22,0,0,1-3.14-1.13,4.42,4.42,0,0,1-1.11-3.22v-1.09a4.85,4.85,0,0,1,1.07-3.35,3.85,3.85,0,0,1,3-1.19,3.31,3.31,0,0,1,2.83,1.35,6.17,6.17,0,0,1,1,3.77v.63h-6.54v-1.53h4.73a3.35,3.35,0,0,0-.61-1.84,1.74,1.74,0,0,0-1.42-.66,2.08,2.08,0,0,0-1.67.71,3,3,0,0,0-.6,2v1.23a2.55,2.55,0,0,0,.64,1.85,2.43,2.43,0,0,0,1.8.64,2.92,2.92,0,0,0,1.15-.23,3.22,3.22,0,0,0,1-.65l1.25,1.25a5.25,5.25,0,0,1-1.62,1.07A4.66,4.66,0,0,1,1265.63,480.91Z" transform="translate(-151 -117.42)"/><path d="M1275.34,480.91a6.92,6.92,0,0,1-2.34-.38,5.43,5.43,0,0,1-1.88-1.14l1.13-1.39a6.64,6.64,0,0,0,1.56.9,4.24,4.24,0,0,0,1.53.3,3.34,3.34,0,0,0,1.7-.35,1.18,1.18,0,0,0,.56-1.05.8.8,0,0,0-.38-.77,2.37,2.37,0,0,0-1-.29c-.4-.05-.84-.09-1.31-.12a11.7,11.7,0,0,1-1.17-.15,3.33,3.33,0,0,1-1-.35,1.85,1.85,0,0,1-.76-.76,3.28,3.28,0,0,1,.66-3.66,4.36,4.36,0,0,1,2.81-.77,7.24,7.24,0,0,1,2.12.31,6.54,6.54,0,0,1,1.84.94l-1.15,1.4a5.94,5.94,0,0,0-1.44-.7,4.21,4.21,0,0,0-1.37-.24,2.61,2.61,0,0,0-1.46.33,1.15,1.15,0,0,0-.49,1,.68.68,0,0,0,.34.63,2.1,2.1,0,0,0,.89.24l1.18.11c.41,0,.82.07,1.23.13a3.62,3.62,0,0,1,1.15.38,2.16,2.16,0,0,1,.84.83,3.06,3.06,0,0,1,.31,1.51,2.73,2.73,0,0,1-1,2.33A5,5,0,0,1,1275.34,480.91Z" transform="translate(-151 -117.42)"/><path d="M1283.74,471.07V477a2.26,2.26,0,0,0,.51,1.58,1.92,1.92,0,0,0,1.47.55,2,2,0,0,0,1.45-.5,1.87,1.87,0,0,0,.51-1.4l.13,2a3,3,0,0,1-.92,1.17,2.68,2.68,0,0,1-1.71.52,3.08,3.08,0,0,1-2.48-1,4.36,4.36,0,0,1-.87-2.91v-5.89Zm3.94,9.7v-9.7h1.89v9.7Z" transform="translate(-151 -117.42)"/><path d="M1294.37,467.19v11.07a.81.81,0,0,0,.16.54.49.49,0,0,0,.43.2h.9v1.81h-1.12a2.09,2.09,0,0,1-1.67-.67,2.76,2.76,0,0,1-.6-1.9V467.19Z" transform="translate(-151 -117.42)"/><path d="M1297.26,472.79v-1.72h4.37v1.72Zm3.27,8a2.12,2.12,0,0,1-1.74-.66,3,3,0,0,1-.53-1.91v-10h1.9v10a.94.94,0,0,0,.14.54.46.46,0,0,0,.41.2h.92v1.81Z" transform="translate(-151 -117.42)"/><rect x="1153.39" y="329.15" width="11.22" height="11.22"/><rect x="1153.39" y="352.15" width="11.22" height="11.22"/><rect x="1090.39" y="405.15" width="11.22" height="11.22"/><path d="M1215.79,532.47l-1.3-14.41,1.47-.7,10.34,10.12-1.85.88-8.1-8.28,1.3,11.51Zm.81-3.68-.78-1.64,6.45-3.06.78,1.64Z" transform="translate(-151 -117.42)"/><path d="M1228.16,526.6l-5.82-12.27,1.72-.81,5.82,12.27Zm.86-.41-.78-1.63,7-3.33.78,1.63Z" transform="translate(-151 -117.42)"/><path d="M1241.92,520.23a4.59,4.59,0,0,1-3.74.31,5.22,5.22,0,0,1-2.73-2.83l-3.71-7.83,1.72-.82,3.74,7.89a3.25,3.25,0,0,0,1.66,1.75,2.69,2.69,0,0,0,2.25-.17,2.78,2.78,0,0,0,1.58-1.64,3.29,3.29,0,0,0-.31-2.4l-3.74-7.89,1.72-.82,3.71,7.83a5.2,5.2,0,0,1,.47,3.91A4.62,4.62,0,0,1,1241.92,520.23Z" transform="translate(-151 -117.42)"/><path d="M1252.83,515.05a5,5,0,0,1-2.54.52,4.3,4.3,0,0,1-2.25-.87,5.58,5.58,0,0,1-1.67-2.13l-1.65-3.47a5.55,5.55,0,0,1-.59-2.64,4.28,4.28,0,0,1,.75-2.29,4.93,4.93,0,0,1,2-1.64,5,5,0,0,1,2.53-.52,4.3,4.3,0,0,1,2.26.87,5.56,5.56,0,0,1,1.66,2.13l1.65,3.47a5.68,5.68,0,0,1,.6,2.64,4.29,4.29,0,0,1-.76,2.29A5,5,0,0,1,1252.83,515.05Zm-.81-1.69a2.71,2.71,0,0,0,1.5-1.64,3.21,3.21,0,0,0-.26-2.34l-1.71-3.59a3.14,3.14,0,0,0-1.65-1.69,2.94,2.94,0,0,0-3.7,1.76,3.12,3.12,0,0,0,.26,2.34l1.7,3.6a3.15,3.15,0,0,0,1.66,1.67A2.62,2.62,0,0,0,1252,513.36Z" transform="translate(-151 -117.42)"/><path d="M1261.38,515.2l-5.84-12.32,1.72-.82,5.85,12.32Zm2.3-5.3a2.85,2.85,0,0,1-1.61.29,2.56,2.56,0,0,1-1.43-.69l-.75-1.88a2.37,2.37,0,0,0,.66.86,1.59,1.59,0,0,0,.88.33,2.15,2.15,0,0,0,1-.23,1.83,1.83,0,0,0,1.07-1.15,2.3,2.3,0,0,0-.22-1.68l-.9-1.9a2.42,2.42,0,0,0-1.18-1.27,1.82,1.82,0,0,0-1.57.09,2.19,2.19,0,0,0-.84.65,1.48,1.48,0,0,0-.3.87,2.09,2.09,0,0,0,.24,1l-1-1.61a3.3,3.3,0,0,1,.48-1.67,2.74,2.74,0,0,1,1.23-1.1,3,3,0,0,1,2.62-.1,4.52,4.52,0,0,1,2,2.27l.91,1.91a4.3,4.3,0,0,1,.44,3A3.05,3.05,0,0,1,1263.68,509.9Z" transform="translate(-151 -117.42)"/><rect class="cls-1" x="422" y="413.32" width="30" height="92.76" rx="15"/><path d="M588.4,548.28a2.63,2.63,0,0,1-2-.72,2.75,2.75,0,0,1-.66-1.94v-4.25a2.74,2.74,0,0,1,.67-2,3.21,3.21,0,0,1,4,0,2.71,2.71,0,0,1,.67,2v4.25a2.7,2.7,0,0,1-.67,2A2.61,2.61,0,0,1,588.4,548.28Zm0-1.25a1.29,1.29,0,0,0,1-.37,1.58,1.58,0,0,0,.32-1v-4.25a1.56,1.56,0,0,0-.32-1,1.65,1.65,0,0,0-2.08,0,1.56,1.56,0,0,0-.32,1v4.25a1.58,1.58,0,0,0,.32,1A1.29,1.29,0,0,0,588.4,547Z" transform="translate(-151 -117.42)"/><path d="M589.39,608.41v9.36h-1.31v-7.93l-1.34.81v-1.36l1.34-.88Z" transform="translate(-151 -117.42)"/><path d="M588.42,564.3l2.17-7.7h2.84V568h-2v-8.87l.08.5-2.18,7.09h-1.9l-2.19-6.93.08-.66V568h-2V556.6h2.84Z" transform="translate(-151 -117.42)"/><path d="M588.41,584.23a4.12,4.12,0,0,1-3.08-1.11,4.33,4.33,0,0,1-1.09-3.14v-7.29h2.16V580a2.09,2.09,0,0,0,.52,1.52,2.29,2.29,0,0,0,3,0,2.06,2.06,0,0,0,.54-1.52v-7.35h2.15V580a4.33,4.33,0,0,1-1.09,3.14A4.15,4.15,0,0,1,588.41,584.23Z" transform="translate(-151 -117.42)"/><path d="M583.85,600.21l4.12-7,2.57-4.39h2.27L589,595.24l-2.91,5Zm6.86,0-2.77-4.68-.22-.37L584,588.78h2.27l2.56,4.33.3.51,3.9,6.59Z" transform="translate(-151 -117.42)"/><line class="cls-3" x1="235" y1="367.58" x2="281" y2="367.58"/><line class="cls-3" x1="281" y1="366.58" x2="281" y2="401.58"/><line class="cls-3" x1="281" y1="400.58" x2="479" y2="400.58"/><line class="cls-3" x1="479" y1="399.58" x2="479" y2="413.58"/><line class="cls-3" x1="479" y1="412.58" x2="586" y2="412.58"/><line class="cls-3" x1="391" y1="400.58" x2="391" y2="425.58"/><line class="cls-3" x1="390" y1="425.58" x2="422" y2="425.58"/><line class="cls-3" x1="281" y1="367.58" x2="586" y2="367.58"/></svg>